<svg width="93" height="84" viewBox="0 0 93 84" fill="none" xmlns="http://www.w3.org/2000/svg">
<rect width="93" height="84" fill="#424242"/>
<g clip-path="url(#clip0_0_1)">
<rect width="1440" height="2867" transform="translate(-367 -2083)" fill="white"/>
<g filter="url(#filter0_d_0_1)">
<rect x="-307" y="-11" width="415" height="540" rx="10" fill="white"/>
<rect x="-306" y="-10" width="413" height="538" rx="9" stroke="#FFB64F" stroke-width="2"/>
</g>
<path d="M-307 -1C-307 -6.52285 -302.523 -11 -297 -11H98C103.523 -11 108 -6.52285 108 -1V121H-307V-1Z" fill="#FFB64F"/>
<path d="M-276.54 86.1705V81.5938H-275.696C-275.406 81.3295 -275.134 80.9567 -274.878 80.4751C-274.618 79.9893 -274.398 79.3416 -274.219 78.532C-274.036 77.718 -273.915 76.6847 -273.855 75.4318L-273.574 69.9091H-265.801V81.5938H-264.293V86.1449H-265.801V83H-275.031V86.1705H-276.54ZM-273.804 81.5938H-267.31V71.3153H-272.142L-272.347 75.4318C-272.398 76.3864 -272.487 77.2514 -272.615 78.027C-272.743 78.7983 -272.907 79.4822 -273.107 80.0788C-273.308 80.6712 -273.54 81.1761 -273.804 81.5938ZM-262.791 83V81.5938H-262.433C-262.139 81.5938 -261.894 81.5362 -261.698 81.4212C-261.502 81.3018 -261.344 81.0952 -261.225 80.8011C-261.101 80.5028 -261.008 80.0895 -260.944 79.5611C-260.876 79.0284 -260.827 78.3509 -260.797 77.5284L-260.618 73.1818H-254.072V83H-255.581V74.5881H-259.186L-259.339 78.0909C-259.373 78.8963 -259.446 79.6058 -259.557 80.2195C-259.663 80.8288 -259.827 81.3402 -260.049 81.7536C-260.266 82.1669 -260.556 82.478 -260.918 82.6868C-261.28 82.8956 -261.734 83 -262.28 83H-262.791ZM-245.218 83V74.5625H-247.826C-248.414 74.5625 -248.877 74.6989 -249.213 74.9716C-249.55 75.2443 -249.718 75.6193 -249.718 76.0966C-249.718 76.5653 -249.567 76.9339 -249.264 77.2024C-248.958 77.4709 -248.538 77.6051 -248.005 77.6051H-244.835V79.0114H-248.005C-248.67 79.0114 -249.243 78.8942 -249.725 78.6598C-250.206 78.4254 -250.577 78.0909 -250.837 77.6562C-251.097 77.2173 -251.227 76.6974 -251.227 76.0966C-251.227 75.4915 -251.09 74.9716 -250.818 74.5369C-250.545 74.1023 -250.155 73.7678 -249.648 73.5334C-249.137 73.299 -248.529 73.1818 -247.826 73.1818H-243.786V83H-245.218ZM-251.764 83L-248.977 78.1165H-247.34L-250.127 83H-251.764ZM-229.024 77.4006V78.8068H-234.444V77.4006H-229.024ZM-234.086 73.1818V83H-235.595V73.1818H-234.086ZM-227.873 73.1818V83H-229.382V73.1818H-227.873ZM-220.822 83.2045C-221.768 83.2045 -222.584 82.9957 -223.27 82.5781C-223.952 82.1562 -224.478 81.5682 -224.849 80.8139C-225.215 80.0554 -225.398 79.1733 -225.398 78.1676C-225.398 77.1619 -225.215 76.2756 -224.849 75.5085C-224.478 74.7372 -223.962 74.1364 -223.302 73.706C-222.637 73.2713 -221.861 73.054 -220.975 73.054C-220.464 73.054 -219.959 73.1392 -219.46 73.3097C-218.962 73.4801 -218.508 73.7571 -218.099 74.1406C-217.689 74.5199 -217.363 75.0227 -217.121 75.6491C-216.878 76.2756 -216.756 77.0469 -216.756 77.9631V78.6023H-224.324V77.2983H-218.29C-218.29 76.7443 -218.401 76.25 -218.623 75.8153C-218.84 75.3807 -219.151 75.0376 -219.556 74.7862C-219.957 74.5348 -220.43 74.4091 -220.975 74.4091C-221.576 74.4091 -222.096 74.5582 -222.535 74.8565C-222.969 75.1506 -223.304 75.5341 -223.538 76.0071C-223.773 76.4801 -223.89 76.9872 -223.89 77.5284V78.3977C-223.89 79.1392 -223.762 79.7678 -223.506 80.2834C-223.246 80.7947 -222.886 81.1847 -222.426 81.4531C-221.966 81.7173 -221.431 81.8494 -220.822 81.8494C-220.425 81.8494 -220.067 81.794 -219.748 81.6832C-219.424 81.5682 -219.145 81.3977 -218.91 81.1719C-218.676 80.9418 -218.495 80.6562 -218.367 80.3153L-216.91 80.7244C-217.063 81.2188 -217.321 81.6534 -217.683 82.0284C-218.045 82.3991 -218.493 82.6889 -219.025 82.8977C-219.558 83.1023 -220.157 83.2045 -220.822 83.2045ZM-206.995 69.5L-206.228 70.4205C-206.526 70.7102 -206.871 70.9126 -207.263 71.0277C-207.655 71.1428 -208.098 71.2131 -208.593 71.2386C-209.087 71.2642 -209.637 71.2898 -210.242 71.3153C-210.924 71.3409 -211.488 71.5071 -211.936 71.8139C-212.383 72.1207 -212.728 72.5639 -212.971 73.1435C-213.214 73.723 -213.37 74.4347 -213.438 75.2784H-213.31C-212.978 74.6648 -212.517 74.2131 -211.929 73.9233C-211.341 73.6335 -210.71 73.4886 -210.037 73.4886C-209.27 73.4886 -208.58 73.6676 -207.966 74.0256C-207.353 74.3835 -206.867 74.9141 -206.509 75.6172C-206.151 76.3203 -205.972 77.1875 -205.972 78.2188C-205.972 79.2457 -206.155 80.1321 -206.522 80.8778C-206.884 81.6236 -207.393 82.1989 -208.049 82.6037C-208.701 83.0043 -209.466 83.2045 -210.344 83.2045C-211.222 83.2045 -211.991 82.9979 -212.652 82.5845C-213.312 82.1669 -213.826 81.549 -214.192 80.7308C-214.558 79.9084 -214.742 78.892 -214.742 77.6818V76.6335C-214.742 74.4474 -214.371 72.7898 -213.63 71.6605C-212.884 70.5312 -211.763 69.9474 -210.267 69.9091C-209.739 69.892 -209.268 69.8878 -208.855 69.8963C-208.441 69.9048 -208.081 69.8857 -207.774 69.8388C-207.468 69.7919 -207.208 69.679 -206.995 69.5ZM-210.344 81.8494C-209.752 81.8494 -209.242 81.7003 -208.816 81.402C-208.386 81.1037 -208.056 80.6839 -207.826 80.1428C-207.595 79.5973 -207.48 78.956 -207.48 78.2188C-207.48 77.5028 -207.598 76.8935 -207.832 76.3906C-208.062 75.8878 -208.392 75.5043 -208.823 75.2401C-209.253 74.9759 -209.769 74.8438 -210.37 74.8438C-210.808 74.8438 -211.203 74.9183 -211.552 75.0675C-211.902 75.2166 -212.2 75.4361 -212.447 75.7259C-212.694 76.0156 -212.886 76.3693 -213.022 76.7869C-213.154 77.2045 -213.225 77.6818 -213.233 78.2188C-213.233 79.3182 -212.975 80.1982 -212.46 80.8587C-211.944 81.5192 -211.239 81.8494 -210.344 81.8494ZM-199.496 83.2045C-200.382 83.2045 -201.16 82.9936 -201.829 82.5717C-202.494 82.1499 -203.013 81.5597 -203.388 80.8011C-203.759 80.0426 -203.945 79.1562 -203.945 78.142C-203.945 77.1193 -203.759 76.2266 -203.388 75.4638C-203.013 74.701 -202.494 74.1087 -201.829 73.6868C-201.16 73.2649 -200.382 73.054 -199.496 73.054C-198.609 73.054 -197.834 73.2649 -197.169 73.6868C-196.5 74.1087 -195.98 74.701 -195.609 75.4638C-195.234 76.2266 -195.047 77.1193 -195.047 78.142C-195.047 79.1562 -195.234 80.0426 -195.609 80.8011C-195.98 81.5597 -196.5 82.1499 -197.169 82.5717C-197.834 82.9936 -198.609 83.2045 -199.496 83.2045ZM-199.496 81.8494C-198.822 81.8494 -198.268 81.6768 -197.834 81.3317C-197.399 80.9865 -197.077 80.5327 -196.869 79.9702C-196.66 79.4077 -196.555 78.7983 -196.555 78.142C-196.555 77.4858 -196.66 76.8743 -196.869 76.3075C-197.077 75.7408 -197.399 75.2827 -197.834 74.9332C-198.268 74.5838 -198.822 74.4091 -199.496 74.4091C-200.169 74.4091 -200.723 74.5838 -201.158 74.9332C-201.592 75.2827 -201.914 75.7408 -202.123 76.3075C-202.332 76.8743 -202.436 77.4858 -202.436 78.142C-202.436 78.7983 -202.332 79.4077 -202.123 79.9702C-201.914 80.5327 -201.592 80.9865 -201.158 81.3317C-200.723 81.6768 -200.169 81.8494 -199.496 81.8494ZM-193.433 83V81.5938H-193.075C-192.781 81.5938 -192.536 81.5362 -192.34 81.4212C-192.144 81.3018 -191.987 81.0952 -191.867 80.8011C-191.744 80.5028 -191.65 80.0895 -191.586 79.5611C-191.518 79.0284 -191.469 78.3509 -191.439 77.5284L-191.26 73.1818H-184.715V83H-186.223V74.5881H-189.828L-189.982 78.0909C-190.016 78.8963 -190.088 79.6058 -190.199 80.2195C-190.306 80.8288 -190.47 81.3402 -190.691 81.7536C-190.909 82.1669 -191.198 82.478 -191.561 82.6868C-191.923 82.8956 -192.377 83 -192.922 83H-193.433ZM-180.463 76.7358H-177.65C-176.5 76.7358 -175.62 77.0277 -175.011 77.6115C-174.401 78.1953 -174.096 78.9347 -174.096 79.8295C-174.096 80.4176 -174.233 80.9524 -174.506 81.4339C-174.778 81.9112 -175.179 82.2926 -175.707 82.5781C-176.236 82.8594 -176.883 83 -177.65 83H-181.767V73.1818H-180.258V81.5938H-177.65C-177.054 81.5938 -176.564 81.4361 -176.18 81.1207C-175.797 80.8054 -175.605 80.4006 -175.605 79.9062C-175.605 79.3864 -175.797 78.9624 -176.18 78.6342C-176.564 78.3061 -177.054 78.142 -177.65 78.142H-180.463V76.7358ZM-171.62 73.1818H-170.112V81.5938H-166.404V73.1818H-164.896V81.5938H-161.188V73.1818H-159.68V83H-171.62V73.1818ZM-152.756 83.2045C-153.643 83.2045 -154.42 82.9936 -155.089 82.5717C-155.754 82.1499 -156.274 81.5597 -156.649 80.8011C-157.02 80.0426 -157.205 79.1562 -157.205 78.142C-157.205 77.1193 -157.02 76.2266 -156.649 75.4638C-156.274 74.701 -155.754 74.1087 -155.089 73.6868C-154.42 73.2649 -153.643 73.054 -152.756 73.054C-151.87 73.054 -151.094 73.2649 -150.429 73.6868C-149.76 74.1087 -149.241 74.701 -148.87 75.4638C-148.495 76.2266 -148.307 77.1193 -148.307 78.142C-148.307 79.1562 -148.495 80.0426 -148.87 80.8011C-149.241 81.5597 -149.76 82.1499 -150.429 82.5717C-151.094 82.9936 -151.87 83.2045 -152.756 83.2045ZM-152.756 81.8494C-152.083 81.8494 -151.529 81.6768 -151.094 81.3317C-150.66 80.9865 -150.338 80.5327 -150.129 79.9702C-149.92 79.4077 -149.816 78.7983 -149.816 78.142C-149.816 77.4858 -149.92 76.8743 -150.129 76.3075C-150.338 75.7408 -150.66 75.2827 -151.094 74.9332C-151.529 74.5838 -152.083 74.4091 -152.756 74.4091C-153.429 74.4091 -153.983 74.5838 -154.418 74.9332C-154.853 75.2827 -155.174 75.7408 -155.383 76.3075C-155.592 76.8743 -155.696 77.4858 -155.696 78.142C-155.696 78.7983 -155.592 79.4077 -155.383 79.9702C-155.174 80.5327 -154.853 80.9865 -154.418 81.3317C-153.983 81.6768 -153.429 81.8494 -152.756 81.8494ZM-139.765 73.1818V74.5881H-144.316V83H-145.825V73.1818H-139.765ZM-133.904 83.2045C-134.79 83.2045 -135.568 82.9936 -136.237 82.5717C-136.902 82.1499 -137.422 81.5597 -137.797 80.8011C-138.167 80.0426 -138.353 79.1562 -138.353 78.142C-138.353 77.1193 -138.167 76.2266 -137.797 75.4638C-137.422 74.701 -136.902 74.1087 -136.237 73.6868C-135.568 73.2649 -134.79 73.054 -133.904 73.054C-133.018 73.054 -132.242 73.2649 -131.577 73.6868C-130.908 74.1087 -130.388 74.701 -130.018 75.4638C-129.643 76.2266 -129.455 77.1193 -129.455 78.142C-129.455 79.1562 -129.643 80.0426 -130.018 80.8011C-130.388 81.5597 -130.908 82.1499 -131.577 82.5717C-132.242 82.9936 -133.018 83.2045 -133.904 83.2045ZM-133.904 81.8494C-133.231 81.8494 -132.677 81.6768 -132.242 81.3317C-131.807 80.9865 -131.486 80.5327 -131.277 79.9702C-131.068 79.4077 -130.964 78.7983 -130.964 78.142C-130.964 77.4858 -131.068 76.8743 -131.277 76.3075C-131.486 75.7408 -131.807 75.2827 -132.242 74.9332C-132.677 74.5838 -133.231 74.4091 -133.904 74.4091C-134.577 74.4091 -135.131 74.5838 -135.566 74.9332C-136.001 75.2827 -136.322 75.7408 -136.531 76.3075C-136.74 76.8743 -136.844 77.4858 -136.844 78.142C-136.844 78.7983 -136.74 79.4077 -136.531 79.9702C-136.322 80.5327 -136.001 80.9865 -135.566 81.3317C-135.131 81.6768 -134.577 81.8494 -133.904 81.8494ZM-120.221 80.7756L-115.491 73.1818H-113.753V83H-115.261V75.4062L-119.966 83H-121.73V73.1818H-120.221V80.7756ZM-106.821 83.2045C-107.741 83.2045 -108.534 82.9872 -109.199 82.5526C-109.864 82.1179 -110.375 81.5192 -110.733 80.7564C-111.091 79.9936 -111.27 79.1222 -111.27 78.142C-111.27 77.1449 -111.087 76.2649 -110.72 75.5021C-110.349 74.7351 -109.834 74.1364 -109.173 73.706C-108.508 73.2713 -107.733 73.054 -106.847 73.054C-106.156 73.054 -105.534 73.1818 -104.98 73.4375C-104.426 73.6932 -103.972 74.0511 -103.619 74.5114C-103.265 74.9716 -103.045 75.5085 -102.96 76.1222H-104.469C-104.584 75.6747 -104.839 75.2784 -105.236 74.9332C-105.628 74.5838 -106.156 74.4091 -106.821 74.4091C-107.409 74.4091 -107.925 74.5625 -108.368 74.8693C-108.807 75.1719 -109.15 75.6001 -109.397 76.1541C-109.64 76.7038 -109.761 77.3494 -109.761 78.0909C-109.761 78.8494 -109.642 79.5099 -109.403 80.0724C-109.16 80.6349 -108.82 81.0717 -108.381 81.3828C-107.937 81.6939 -107.418 81.8494 -106.821 81.8494C-106.429 81.8494 -106.073 81.7812 -105.754 81.6449C-105.434 81.5085 -105.163 81.3125 -104.942 81.0568C-104.72 80.8011 -104.562 80.4943 -104.469 80.1364H-102.96C-103.045 80.7159 -103.256 81.2379 -103.593 81.7024C-103.925 82.1626 -104.366 82.5291 -104.916 82.8018C-105.462 83.0703 -106.097 83.2045 -106.821 83.2045ZM-96.5863 83.2045C-97.5068 83.2045 -98.2994 82.9872 -98.9642 82.5526C-99.6289 82.1179 -100.14 81.5192 -100.498 80.7564C-100.856 79.9936 -101.035 79.1222 -101.035 78.142C-101.035 77.1449 -100.852 76.2649 -100.485 75.5021C-100.115 74.7351 -99.5991 74.1364 -98.9386 73.706C-98.2738 73.2713 -97.4982 73.054 -96.6119 73.054C-95.9215 73.054 -95.2994 73.1818 -94.7454 73.4375C-94.1914 73.6932 -93.7376 74.0511 -93.3839 74.5114C-93.0302 74.9716 -92.8107 75.5085 -92.7255 76.1222H-94.234C-94.3491 75.6747 -94.6048 75.2784 -95.0011 74.9332C-95.3931 74.5838 -95.9215 74.4091 -96.5863 74.4091C-97.1744 74.4091 -97.69 74.5625 -98.1332 74.8693C-98.5721 75.1719 -98.9151 75.6001 -99.1623 76.1541C-99.4052 76.7038 -99.5267 77.3494 -99.5267 78.0909C-99.5267 78.8494 -99.4073 79.5099 -99.1687 80.0724C-98.9258 80.6349 -98.5849 81.0717 -98.146 81.3828C-97.7028 81.6939 -97.1829 81.8494 -96.5863 81.8494C-96.1943 81.8494 -95.8384 81.7812 -95.5188 81.6449C-95.1992 81.5085 -94.9286 81.3125 -94.707 81.0568C-94.4855 80.8011 -94.3278 80.4943 -94.234 80.1364H-92.7255C-92.8107 80.7159 -93.0217 81.2379 -93.3583 81.7024C-93.6907 82.1626 -94.1318 82.5291 -94.6815 82.8018C-95.2269 83.0703 -95.8619 83.2045 -96.5863 83.2045ZM-91.2096 83V81.5938H-90.8516C-90.5576 81.5938 -90.3126 81.5362 -90.1165 81.4212C-89.9205 81.3018 -89.7628 81.0952 -89.6435 80.8011C-89.5199 80.5028 -89.4262 80.0895 -89.3623 79.5611C-89.2941 79.0284 -89.2451 78.3509 -89.2153 77.5284L-89.0363 73.1818H-82.4908V83H-83.9993V74.5881H-87.6045L-87.7579 78.0909C-87.792 78.8963 -87.8644 79.6058 -87.9752 80.2195C-88.0817 80.8288 -88.2458 81.3402 -88.4674 81.7536C-88.6847 82.1669 -88.9745 82.478 -89.3367 82.6868C-89.6989 82.8956 -90.1528 83 -90.6982 83H-91.2096ZM-75.4266 83.2045C-76.3726 83.2045 -77.1887 82.9957 -77.8747 82.5781C-78.5566 82.1562 -79.0828 81.5682 -79.4536 80.8139C-79.8201 80.0554 -80.0033 79.1733 -80.0033 78.1676C-80.0033 77.1619 -79.8201 76.2756 -79.4536 75.5085C-79.0828 74.7372 -78.5672 74.1364 -77.9067 73.706C-77.2419 73.2713 -76.4664 73.054 -75.58 73.054C-75.0686 73.054 -74.5637 73.1392 -74.0651 73.3097C-73.5665 73.4801 -73.1127 73.7571 -72.7036 74.1406C-72.2945 74.5199 -71.9685 75.0227 -71.7256 75.6491C-71.4827 76.2756 -71.3613 77.0469 -71.3613 77.9631V78.6023H-78.9294V77.2983H-72.8953C-72.8953 76.7443 -73.0061 76.25 -73.2277 75.8153C-73.4451 75.3807 -73.7561 75.0376 -74.161 74.7862C-74.5615 74.5348 -75.0345 74.4091 -75.58 74.4091C-76.1809 74.4091 -76.7007 74.5582 -77.1397 74.8565C-77.5743 75.1506 -77.9088 75.5341 -78.1432 76.0071C-78.3776 76.4801 -78.4948 76.9872 -78.4948 77.5284V78.3977C-78.4948 79.1392 -78.3669 79.7678 -78.1113 80.2834C-77.8513 80.7947 -77.4912 81.1847 -77.031 81.4531C-76.5708 81.7173 -76.036 81.8494 -75.4266 81.8494C-75.0303 81.8494 -74.6723 81.794 -74.3527 81.6832C-74.0289 81.5682 -73.7497 81.3977 -73.5154 81.1719C-73.281 80.9418 -73.0999 80.6562 -72.972 80.3153L-71.5147 80.7244C-71.6681 81.2188 -71.9259 81.6534 -72.2881 82.0284C-72.6503 82.3991 -73.0978 82.6889 -73.6304 82.8977C-74.1631 83.1023 -74.7618 83.2045 -75.4266 83.2045ZM-69.9348 85.8125V81.5938H-69.1166C-68.9163 81.3849 -68.7437 81.1591 -68.5989 80.9162C-68.454 80.6733 -68.3283 80.3857 -68.2217 80.0533C-68.1109 79.7166 -68.0172 79.3075 -67.9405 78.826C-67.8638 78.3402 -67.7956 77.7543 -67.7359 77.0682L-67.4035 73.1818H-61.1649V81.5938H-59.6564V85.8125H-61.1649V83H-68.4263V85.8125H-69.9348ZM-67.4035 81.5938H-62.6734V74.5881H-65.9973L-66.253 77.0682C-66.3595 78.0952 -66.4916 78.9922 -66.6493 79.7592C-66.807 80.5263 -67.0584 81.1378 -67.4035 81.5938ZM-53.4854 83.2045C-54.3718 83.2045 -55.1495 82.9936 -55.8185 82.5717C-56.4833 82.1499 -57.0032 81.5597 -57.3782 80.8011C-57.7489 80.0426 -57.9343 79.1562 -57.9343 78.142C-57.9343 77.1193 -57.7489 76.2266 -57.3782 75.4638C-57.0032 74.701 -56.4833 74.1087 -55.8185 73.6868C-55.1495 73.2649 -54.3718 73.054 -53.4854 73.054C-52.5991 73.054 -51.8235 73.2649 -51.1587 73.6868C-50.4897 74.1087 -49.9698 74.701 -49.5991 75.4638C-49.2241 76.2266 -49.0366 77.1193 -49.0366 78.142C-49.0366 79.1562 -49.2241 80.0426 -49.5991 80.8011C-49.9698 81.5597 -50.4897 82.1499 -51.1587 82.5717C-51.8235 82.9936 -52.5991 83.2045 -53.4854 83.2045ZM-53.4854 81.8494C-52.8122 81.8494 -52.2582 81.6768 -51.8235 81.3317C-51.3889 80.9865 -51.0671 80.5327 -50.8583 79.9702C-50.6495 79.4077 -50.5451 78.7983 -50.5451 78.142C-50.5451 77.4858 -50.6495 76.8743 -50.8583 76.3075C-51.0671 75.7408 -51.3889 75.2827 -51.8235 74.9332C-52.2582 74.5838 -52.8122 74.4091 -53.4854 74.4091C-54.1587 74.4091 -54.7127 74.5838 -55.1474 74.9332C-55.582 75.2827 -55.9038 75.7408 -56.1126 76.3075C-56.3214 76.8743 -56.4258 77.4858 -56.4258 78.142C-56.4258 78.7983 -56.3214 79.4077 -56.1126 79.9702C-55.9038 80.5327 -55.582 80.9865 -55.1474 81.3317C-54.7127 81.6768 -54.1587 81.8494 -53.4854 81.8494ZM-46.5538 83V73.1818H-42.5396C-41.4828 73.1818 -40.6433 73.4205 -40.0212 73.8977C-39.399 74.375 -39.0879 75.0057 -39.0879 75.7898C-39.0879 76.3864 -39.2648 76.8487 -39.6185 77.1768C-39.9722 77.5007 -40.426 77.7202 -40.98 77.8352C-40.6178 77.8864 -40.2662 78.0142 -39.9253 78.2188C-39.5801 78.4233 -39.2946 78.7045 -39.0688 79.0625C-38.8429 79.4162 -38.73 79.8509 -38.73 80.3665C-38.73 80.8693 -38.8578 81.3189 -39.1135 81.7152C-39.3692 82.1115 -39.7357 82.4247 -40.2129 82.6548C-40.6902 82.8849 -41.2612 83 -41.926 83H-46.5538ZM-45.122 81.6193H-41.926C-41.4061 81.6193 -40.9992 81.4957 -40.7051 81.2486C-40.4111 81.0014 -40.2641 80.6648 -40.2641 80.2386C-40.2641 79.7315 -40.4111 79.3331 -40.7051 79.0433C-40.9992 78.7493 -41.4061 78.6023 -41.926 78.6023H-45.122V81.6193ZM-45.122 77.2983H-42.5396C-42.1348 77.2983 -41.7875 77.2429 -41.4977 77.1321C-41.208 77.017 -40.9864 76.8551 -40.833 76.6463C-40.6753 76.4332 -40.5965 76.1818 -40.5965 75.892C-40.5965 75.4787 -40.769 75.1548 -41.1142 74.9205C-41.4594 74.6818 -41.9345 74.5625 -42.5396 74.5625H-45.122V77.2983ZM-33.3772 83.2301C-33.9994 83.2301 -34.564 83.1129 -35.0711 82.8786C-35.5782 82.6399 -35.9809 82.2969 -36.2792 81.8494C-36.5775 81.3977 -36.7267 80.8523 -36.7267 80.2131C-36.7267 79.6506 -36.6159 79.1946 -36.3943 78.8452C-36.1727 78.4915 -35.8765 78.2145 -35.5058 78.0142C-35.135 77.8139 -34.7259 77.6648 -34.2785 77.5668C-33.8268 77.4645 -33.373 77.3835 -32.917 77.3239C-32.3204 77.2472 -31.8367 77.1896 -31.466 77.1513C-31.091 77.1087 -30.8183 77.0384 -30.6478 76.9403C-30.4731 76.8423 -30.3857 76.6719 -30.3857 76.429V76.3778C-30.3857 75.7472 -30.5583 75.2571 -30.9035 74.9077C-31.2444 74.5582 -31.7622 74.3835 -32.4568 74.3835C-33.1769 74.3835 -33.7416 74.5412 -34.1507 74.8565C-34.5598 75.1719 -34.8474 75.5085 -35.0136 75.8665L-36.4454 75.3551C-36.1897 74.7585 -35.8488 74.294 -35.4227 73.9616C-34.9923 73.625 -34.5235 73.3906 -34.0164 73.2585C-33.5051 73.1222 -33.0022 73.054 -32.5079 73.054C-32.1926 73.054 -31.8303 73.0923 -31.4213 73.169C-31.0079 73.2415 -30.6095 73.3928 -30.2259 73.6229C-29.8382 73.853 -29.5164 74.2003 -29.2607 74.6648C-29.0051 75.1293 -28.8772 75.7514 -28.8772 76.5312V83H-30.3857V81.6705H-30.4625C-30.5647 81.8835 -30.7352 82.1115 -30.9738 82.3544C-31.2125 82.5973 -31.5299 82.804 -31.9262 82.9744C-32.3225 83.1449 -32.8062 83.2301 -33.3772 83.2301ZM-33.1471 81.875C-32.5505 81.875 -32.0477 81.7578 -31.6386 81.5234C-31.2252 81.2891 -30.9142 80.9865 -30.7053 80.6158C-30.4923 80.245 -30.3857 79.8551 -30.3857 79.446V78.0653C-30.4497 78.142 -30.5903 78.2124 -30.8076 78.2763C-31.0207 78.3359 -31.2678 78.3892 -31.5491 78.4361C-31.8261 78.4787 -32.0967 78.517 -32.3609 78.5511C-32.6208 78.581 -32.8318 78.6065 -32.9937 78.6278C-33.3857 78.679 -33.7522 78.7621 -34.0931 78.8771C-34.4298 78.9879 -34.7025 79.1562 -34.9113 79.3821C-35.1159 79.6037 -35.2181 79.9062 -35.2181 80.2898C-35.2181 80.8139 -35.0242 81.2102 -34.6365 81.4787C-34.2444 81.7429 -33.748 81.875 -33.1471 81.875ZM-19.3728 77.4006V78.8068H-24.7933V77.4006H-19.3728ZM-24.4353 73.1818V83H-25.9438V73.1818H-24.4353ZM-18.2223 73.1818V83H-19.7308V73.1818H-18.2223ZM-13.7788 80.7756L-9.04865 73.1818H-7.31001V83H-8.81854V75.4062L-13.5231 83H-15.2873V73.1818H-13.7788V80.7756ZM1.53919 83V74.5625H-1.06876C-1.65683 74.5625 -2.11919 74.6989 -2.45584 74.9716C-2.79249 75.2443 -2.96081 75.6193 -2.96081 76.0966C-2.96081 76.5653 -2.80953 76.9339 -2.50697 77.2024C-2.20016 77.4709 -1.78041 77.6051 -1.24774 77.6051H1.92271V79.0114H-1.24774C-1.91251 79.0114 -2.48567 78.8942 -2.9672 78.6598C-3.44874 78.4254 -3.81947 78.0909 -4.07942 77.6562C-4.33936 77.2173 -4.46933 76.6974 -4.46933 76.0966C-4.46933 75.4915 -4.33297 74.9716 -4.06024 74.5369C-3.78751 74.1023 -3.3976 73.7678 -2.8905 73.5334C-2.37913 73.299 -1.77189 73.1818 -1.06876 73.1818H2.97101V83H1.53919ZM-5.00626 83L-2.21933 78.1165H-0.582969L-3.3699 83H-5.00626Z" fill="black"/>
<path d="M31.702 71.154C32.2547 71.6516 32.8806 72.0612 33.5577 72.3686C33.7444 72.4589 33.9385 72.5447 34.1402 72.626C35.8165 73.3118 37.6232 73.6201 39.432 73.529H39.5223C40.3319 73.4854 41.1196 73.2502 41.8206 72.8427C42.3188 72.5402 42.6945 72.0718 42.8816 71.5198C42.9569 71.3042 43.0569 71.0982 43.1796 70.9057C43.5637 70.3353 44.0291 69.8241 44.5613 69.3886C45.7307 68.3636 47.3923 67.2439 49.2661 65.8983C54.3999 62.223 61.1411 56.868 63.9224 47.1287C66.5864 37.8093 64.97 25.3112 53.3343 21.4913L53.0634 21.4056C41.5226 17.7573 30.1488 23.311 26.5276 36.1341C23.0644 48.3929 29.8553 59.0217 30.9615 65.5145C31.1979 66.5864 31.1653 67.7002 30.8667 68.7565L30.8396 68.8513C30.6093 69.6685 30.975 70.4632 31.702 71.154Z" fill="#FFAE00"/>
<path opacity="0.75" d="M33.1334 74.5495C33.1334 74.5495 39.6578 47.8196 35.2555 45.6523C30.8532 43.485 30.2572 50.023 33.2101 51.8742C37.1835 54.3711 44.0918 55.2109 45.2161 50.5196C46.092 46.8669 41.5091 45.878 40.2854 49.6572C39.4592 52.2219 41.0033 54.5788 44.322 55.369C49.9389 56.701 53.8852 54.9175 52.1378 50.8538C51.1806 48.6278 48.2231 49.5669 47.5955 52.4025C46.9679 55.238 38.809 76.1886 38.809 76.1886" stroke="white" stroke-width="3.06" stroke-linecap="round" stroke-linejoin="round"/>
<path d="M33.6076 82.8756L33.156 82.7401C31.4056 82.2391 29.9257 81.0635 29.0418 79.4717C28.1578 77.88 27.9422 76.0023 28.4422 74.2516C28.4422 74.2516 29.8871 65.8713 30.9346 65.5146C31.9821 65.1579 44.3447 68.7204 44.6156 69.4248C44.8865 70.1292 42.1187 78.1572 42.1187 78.1572C41.8712 79.0268 41.4545 79.8391 40.8924 80.5473C40.3303 81.2555 39.6339 81.8457 38.8431 82.2841C38.0523 82.7225 37.1828 83.0004 36.2843 83.1019C35.3859 83.2034 34.4762 83.1265 33.6076 82.8756Z" fill="#3B3B4C"/>
<path d="M28.848 69.7058L28.8799 69.5143C28.9679 68.9854 29.468 68.6281 29.9969 68.7161L43.8041 71.0142C44.3329 71.1023 44.6903 71.6024 44.6023 72.1312L44.5704 72.3228C44.4824 72.8516 43.9823 73.209 43.4534 73.121L29.6462 70.8228C29.1174 70.7348 28.76 70.2347 28.848 69.7058Z" fill="#AAAAAF"/>
<path d="M28.0508 72.7803L28.0826 72.5888C28.1705 72.0599 28.6705 71.7023 29.1993 71.7902L43.0073 74.0835C43.5362 74.1713 43.8938 74.6713 43.8059 75.2002L43.7741 75.3917C43.6863 75.9206 43.1863 76.2782 42.6574 76.1903L28.8494 73.897C28.3205 73.8091 27.963 73.3092 28.0508 72.7803Z" fill="#AAAAAF"/>
<path d="M27.317 75.8776L27.3489 75.686C27.4369 75.1571 27.937 74.7998 28.4659 74.8878L42.2731 77.1859C42.8019 77.274 43.1593 77.7741 43.0713 78.3029L43.0394 78.4945C42.9514 79.0233 42.4513 79.3807 41.9224 79.2926L28.1153 76.9945C27.5864 76.9065 27.229 76.4064 27.317 75.8776Z" fill="#AAAAAF"/>
<g opacity="0.65">
<path opacity="0.65" d="M41.2834 29.5917C42.1187 29.4021 42.7283 29.1854 43.2791 29.0499C43.7189 28.9229 44.1762 28.8665 44.6337 28.8828C44.8889 28.9048 45.146 28.8762 45.3903 28.7988C45.6345 28.7214 45.8611 28.5966 46.0571 28.4316C46.2531 28.2667 46.4147 28.0647 46.5326 27.8372C46.6506 27.6098 46.7226 27.3614 46.7445 27.1061C46.7665 26.8509 46.7379 26.5938 46.6605 26.3495C46.5831 26.1053 46.4583 25.8787 46.2933 25.6827C46.1283 25.4867 45.9264 25.3251 45.6989 25.2071C45.4715 25.0892 45.2231 25.0172 44.9678 24.9953H44.9181C44.0407 24.9504 43.1619 25.0511 42.3174 25.2933C41.5814 25.4874 40.9267 25.7177 40.4661 25.8215H40.439C39.9509 25.9449 39.5302 26.2538 39.2665 26.6826C39.0027 27.1114 38.9167 27.6262 39.0267 28.1175C39.1367 28.6087 39.4341 29.0377 39.8556 29.313C40.277 29.5883 40.7893 29.6883 41.2834 29.5917Z" fill="white"/>
<path opacity="0.65" d="M33.26 40.1346C33.457 38.528 33.9033 36.962 34.5829 35.493C35.2873 34.0538 36.2378 32.7489 37.3914 31.637C37.7506 31.2855 37.9556 30.8057 37.9611 30.3032C37.9666 29.8006 37.7722 29.3164 37.4208 28.9572C37.0693 28.5979 36.5895 28.393 36.0869 28.3875C35.5844 28.382 35.1002 28.5764 34.741 28.9278C33.2639 30.3339 32.0418 31.9853 31.1288 33.8088C30.2637 35.6323 29.6864 37.5789 29.4176 39.5792C29.353 40.0821 29.4886 40.5903 29.7952 40.9941C30.1018 41.3979 30.5548 41.665 31.0566 41.7379C31.5584 41.8108 32.0687 41.6835 32.4775 41.3836C32.8863 41.0837 33.1608 40.6351 33.2419 40.1346H33.26Z" fill="white"/>
</g>
<path opacity="0.12" d="M49.2708 65.8894C54.4045 62.214 61.1457 56.859 63.9271 47.1197C66.5911 37.8003 64.9746 25.3022 53.339 21.4824L53.068 21.3966C64.4689 44.8756 59.8138 51.1427 49.2708 65.8894Z" fill="#E84E19"/>
<path d="M70.0902 50.3752L91.5374 52.2806C91.7045 52.2997 91.8723 52.2518 92.0039 52.1472C92.1356 52.0426 92.2204 51.89 92.2395 51.723C92.2587 51.5559 92.2107 51.3881 92.1061 51.2564C92.0016 51.1248 91.849 51.04 91.6819 51.0209L70.3611 48.0318C70.0603 48.0071 69.7614 48.0983 69.5256 48.2868C69.2898 48.4753 69.135 48.7468 69.0928 49.0457C69.0507 49.3446 69.1245 49.6484 69.299 49.8947C69.4735 50.141 69.7356 50.3113 70.0315 50.3707L70.0902 50.3752Z" fill="white"/>
<path d="M71.6073 34.6487L91.8038 29.3614C91.9307 29.3274 92.0391 29.245 92.1058 29.1318C92.1725 29.0187 92.1922 28.8839 92.1605 28.7564C92.1294 28.6342 92.0526 28.5286 91.9459 28.4614C91.8392 28.3941 91.7107 28.3704 91.5871 28.3952L71.0835 32.3505C70.7764 32.4104 70.5056 32.5898 70.3307 32.8493C70.1559 33.1089 70.0913 33.4272 70.1512 33.7344C70.211 34.0416 70.3905 34.3123 70.65 34.4872C70.9096 34.6621 71.2279 34.7267 71.535 34.6668L71.6073 34.6487Z" fill="white"/>
<path d="M65.6563 21.4914L75.6711 10.542C75.7573 10.4564 75.806 10.34 75.8064 10.2185C75.8068 10.097 75.759 9.98032 75.6733 9.8941C75.5877 9.80788 75.4714 9.75922 75.3499 9.75879C75.2283 9.75837 75.1116 9.80624 75.0254 9.89186L63.9948 19.8253C63.7805 20.0395 63.6565 20.3278 63.6485 20.6307C63.6405 20.9336 63.749 21.228 63.9516 21.4533C64.1543 21.6785 64.4357 21.8174 64.7378 21.8413C65.0398 21.8652 65.3395 21.7723 65.5751 21.5817C65.6061 21.5554 65.6334 21.525 65.6563 21.4914Z" fill="white"/>
<path d="M53.3749 15.098L55.3886 0.960875C55.3981 0.893107 55.3939 0.824116 55.3761 0.75803C55.3584 0.691943 55.3275 0.630105 55.2854 0.576184C55.2433 0.522263 55.1907 0.477366 55.1309 0.444165C55.0711 0.410964 55.0052 0.39013 54.9371 0.382916C54.8111 0.365915 54.6832 0.39619 54.5781 0.467893C54.4731 0.539595 54.3983 0.647653 54.3682 0.77123L51.0405 14.6555C50.9837 14.9542 51.0441 15.2633 51.2091 15.5187C51.3742 15.7741 51.6312 15.9562 51.9269 16.027C52.2226 16.0979 52.5342 16.0522 52.7971 15.8994C53.06 15.7465 53.254 15.4984 53.3388 15.2063C53.3527 15.1709 53.3648 15.1347 53.3749 15.098Z" fill="white"/>
<path d="M41.4232 14.4115L38.5516 0.414338C38.5318 0.286205 38.462 0.171166 38.3574 0.0945342C38.2528 0.017902 38.1221 -0.014046 37.994 0.00571282C37.8658 0.0254717 37.7508 0.0953291 37.6741 0.199904C37.5975 0.30448 37.5656 0.435214 37.5853 0.563347L39.0889 14.7817C39.1218 15.0931 39.2771 15.3786 39.5205 15.5755C39.764 15.7723 40.0756 15.8644 40.387 15.8315C40.6983 15.7986 40.9839 15.6433 41.1807 15.3998C41.3776 15.1564 41.4697 14.8447 41.4368 14.5334C41.4349 14.4925 41.4304 14.4518 41.4232 14.4115Z" fill="white"/>
<path d="M28.5278 19.771L16.2555 8.82613C16.1675 8.74051 16.049 8.69336 15.9263 8.69505C15.8035 8.69674 15.6864 8.74714 15.6007 8.83516C15.5151 8.92318 15.468 9.04161 15.4697 9.16439C15.4714 9.28717 15.5218 9.40425 15.6098 9.48987L26.8978 21.4597C27.0039 21.5726 27.1313 21.6636 27.2726 21.7273C27.4139 21.791 27.5663 21.8263 27.7212 21.8312C27.8761 21.836 28.0305 21.8102 28.1754 21.7554C28.3204 21.7006 28.4532 21.6177 28.5662 21.5116C28.6791 21.4055 28.77 21.2781 28.8338 21.1368C28.8975 20.9955 28.9328 20.8431 28.9377 20.6882C28.9425 20.5332 28.9167 20.3789 28.8619 20.2339C28.807 20.0889 28.7242 19.9562 28.6181 19.8432C28.5775 19.8161 28.5503 19.7935 28.5278 19.771Z" fill="white"/>
<path d="M22.9562 32.3911L0.511185 24.2637C0.411623 24.2505 0.310457 24.2708 0.223749 24.3215C0.137041 24.3722 0.0697384 24.4503 0.0324383 24.5436C-0.00486374 24.6368 -0.00999641 24.7399 0.0178318 24.8364C0.04566 24.9329 0.104822 25.0174 0.186049 25.0764L22.0848 34.5584C22.3683 34.6622 22.6808 34.6538 22.9583 34.5347C23.2357 34.4157 23.4572 34.195 23.5773 33.918C23.6973 33.6409 23.7069 33.3284 23.604 33.0446C23.5011 32.7607 23.2936 32.5269 23.024 32.3911H22.9562Z" fill="white"/>
</g>
<defs>
<filter id="filter0_d_0_1" x="-327" y="-31" width="455" height="580" filterUnits="userSpaceOnUse" color-interpolation-filters="sRGB">
<feFlood flood-opacity="0" result="BackgroundImageFix"/>
<feColorMatrix in="SourceAlpha" type="matrix" values="0 0 0 0 0 0 0 0 0 0 0 0 0 0 0 0 0 0 127 0" result="hardAlpha"/>
<feOffset/>
<feGaussianBlur stdDeviation="10"/>
<feComposite in2="hardAlpha" operator="out"/>
<feColorMatrix type="matrix" values="0 0 0 0 0 0 0 0 0 0 0 0 0 0 0 0 0 0 0.2 0"/>
<feBlend mode="normal" in2="BackgroundImageFix" result="effect1_dropShadow_0_1"/>
<feBlend mode="normal" in="SourceGraphic" in2="effect1_dropShadow_0_1" result="shape"/>
</filter>
<clipPath id="clip0_0_1">
<rect width="1440" height="2867" fill="white" transform="translate(-367 -2083)"/>
</clipPath>
</defs>
</svg>
